Normalized EMG Linear Envelopes
nRows=153
nColumns=4

endheader
time	 med_gas_r	  soleus_r	 tib_ant_r	
2.18736	  0.059712	  0.074340	  0.023136	
2.24986	  0.057640	  0.068828	  0.022013	
2.31235	  0.055741	  0.064026	  0.021249	
2.37485	  0.054092	  0.061051	  0.021038	
2.43734	  0.053108	  0.060607	  0.021337	
2.49984	  0.053494	  0.062011	  0.021866	
2.56234	  0.055339	  0.063760	  0.022333	
2.62483	  0.057934	  0.064904	  0.022795	
2.68733	  0.060475	  0.065301	  0.023591	
2.74982	  0.062366	  0.064998	  0.024704	
2.81232	  0.063003	  0.064185	  0.025523	
2.87482	  0.061667	  0.063261	  0.025433	
2.93731	  0.058258	  0.062373	  0.024432	
2.99981	  0.054224	  0.061542	  0.023122	
3.0623	  0.051701	  0.061166	  0.022141	
3.1248	  0.051445	  0.061624	  0.021635	
3.1873	  0.052372	  0.062644	  0.021417	
3.24979	  0.053149	  0.063693	  0.021381	
3.31229	  0.053486	  0.064901	  0.021488	
3.37478	  0.053887	  0.066816	  0.021596	
3.43728	  0.054837	  0.068898	  0.021601	
3.49978	  0.056277	  0.069579	  0.021632	
3.56227	  0.057616	  0.068352	  0.021914	
3.62477	  0.058318	  0.066439	  0.022501	
3.68726	  0.058208	  0.065250	  0.023228	
3.74976	  0.057553	  0.065408	  0.023849	
3.81226	  0.057180	  0.066924	  0.024175	
3.87475	  0.057597	  0.068973	  0.024174	
3.93725	  0.058101	  0.069903	  0.024015	
3.99974	  0.058026	  0.068736	  0.023950	
4.06224	  0.058632	  0.066529	  0.024005	
4.12474	  0.062944	  0.065621	  0.023906	
4.18723	  0.074119	  0.067948	  0.023524	
4.24973	  0.092808	  0.074660	  0.023178	
4.31222	  0.115538	  0.087157	  0.023314	
4.37472	  0.141499	  0.107919	  0.024376	
4.43722	  0.182490	  0.140266	  0.027166	
4.49971	  0.256866	  0.188365	  0.032894	
4.56221	  0.369767	  0.255956	  0.042764	
4.6247	  0.501634	  0.339295	  0.057439	
4.6872	  0.614712	  0.421669	  0.076164	
4.7497	  0.674052	  0.482188	  0.096096	
4.81219	  0.669807	  0.511052	  0.113277	
4.87469	  0.622707	  0.514454	  0.124543	
4.93718	  0.569800	  0.506454	  0.128114	
4.99968	  0.540980	  0.496459	  0.123935	
5.06218	  0.542652	  0.485940	  0.115029	
5.12467	  0.562987	  0.476263	  0.106418	
5.18717	  0.586139	  0.469927	  0.101212	
5.24966	  0.597397	  0.462918	  0.099298	
5.31216	  0.588190	  0.448768	  0.099388	
5.37466	  0.561753	  0.432100	  0.100127	
5.43715	  0.530137	  0.427725	  0.099897	
5.49965	  0.509772	  0.444988	  0.097632	
5.56214	  0.514552	  0.478700	  0.093854	
5.62464	  0.544432	  0.515334	  0.090229	
5.68714	  0.584654	  0.543134	  0.088267	
5.74963	  0.615614	  0.555991	  0.088269	
5.81213	  0.622959	  0.553966	  0.089395	
5.87462	  0.607422	  0.544483	  0.091013	
5.93712	  0.584394	  0.539747	  0.093083	
5.99962	  0.569139	  0.547616	  0.094799	
6.06211	  0.566880	  0.566202	  0.094658	
6.12461	  0.573703	  0.588688	  0.092501	
6.1871	  0.580853	  0.608758	  0.090083	
6.2496	  0.585077	  0.621933	  0.089289	
6.3121	  0.594641	  0.628277	  0.090698	
6.37459	  0.617257	  0.634817	  0.093928	
6.43709	  0.647647	  0.650390	  0.098236	
6.49958	  0.671812	  0.674723	  0.102205	
6.56208	  0.678138	  0.693361	  0.103846	
6.62458	  0.664637	  0.687965	  0.101923	
6.68707	  0.638942	  0.657288	  0.097389	
6.74957	  0.612021	  0.622767	  0.093357	
6.81206	  0.593198	  0.605517	  0.092689	
6.87456	  0.589748	  0.608702	  0.095100	
6.93706	  0.605365	  0.627289	  0.097479	
6.99955	  0.634138	  0.655860	  0.097311	
7.06205	  0.660497	  0.683346	  0.095044	
7.12454	  0.672714	  0.697257	  0.093070	
7.18704	  0.672720	  0.696109	  0.092905	
7.24954	  0.667514	  0.691169	  0.093512	
7.31203	  0.657031	  0.694489	  0.092601	
7.37453	  0.636654	  0.704993	  0.089551	
7.43702	  0.608050	  0.711690	  0.086371	
7.49952	  0.581332	  0.712777	  0.085764	
7.56202	  0.568526	  0.717756	  0.088893	
7.62451	  0.578496	  0.730509	  0.094368	
7.68701	  0.612346	  0.747411	  0.098927	
7.7495	  0.658017	  0.761610	  0.099969	
7.812	  0.694589	  0.757016	  0.097404	
7.8745	  0.708171	  0.723347	  0.093090	
7.93699	  0.702580	  0.681557	  0.089411	
7.99949	  0.693487	  0.664964	  0.087771	
8.06198	  0.693478	  0.678324	  0.087629	
8.12448	  0.700976	  0.698541	  0.087898	
8.18698	  0.702329	  0.706914	  0.088830	
8.24947	  0.686410	  0.702338	  0.090731	
8.31197	  0.656239	  0.691393	  0.091982	
8.37446	  0.624159	  0.681300	  0.090696	
8.43696	  0.597367	  0.677047	  0.087312	
8.49946	  0.572261	  0.675201	  0.083990	
8.56195	  0.543836	  0.667268	  0.082562	
8.62445	  0.516504	  0.652871	  0.083660	
8.68694	  0.504809	  0.638338	  0.086427	
8.74944	  0.524295	  0.624203	  0.089032	
8.81194	  0.575355	  0.609664	  0.090107	
8.87443	  0.636804	  0.605178	  0.089281	
8.93693	  0.684026	  0.626014	  0.087032	
8.99942	  0.707025	  0.673024	  0.084733	
9.06192	  0.706289	  0.722842	  0.083691	
9.12442	  0.684945	  0.741458	  0.083812	
9.18691	  0.649836	  0.712603	  0.083896	
9.24941	  0.612121	  0.648047	  0.083137	
9.3119	  0.582806	  0.572944	  0.081803	
9.3744	  0.568392	  0.510845	  0.080461	
9.4369	  0.572118	  0.477188	  0.079540	
9.49939	  0.594641	  0.478441	  0.079952	
9.56189	  0.631315	  0.512860	  0.082711	
9.62438	  0.674783	  0.565765	  0.087217	
9.68688	  0.715125	  0.611125	  0.090689	
9.74938	  0.735720	  0.630136	  0.090155	
9.81187	  0.724181	  0.622149	  0.085187	
9.87437	  0.684117	  0.594230	  0.078137	
9.93686	  0.626449	  0.553295	  0.071585	
9.99936	  0.561142	  0.508147	  0.066397	
10.0619	  0.499676	  0.466831	  0.062501	
10.1244	  0.453979	  0.431907	  0.060292	
10.1868	  0.430382	  0.403101	  0.060236	
10.2493	  0.424739	  0.380355	  0.061789	
10.3118	  0.423463	  0.358498	  0.063791	
10.3743	  0.412885	  0.326602	  0.065559	
10.4368	  0.388935	  0.281004	  0.066757	
10.4993	  0.356288	  0.230064	  0.066795	
10.5618	  0.320730	  0.183173	  0.065331	
10.6243	  0.288232	  0.145548	  0.062822	
10.6868	  0.267730	  0.120281	  0.059977	
10.7493	  0.265173	  0.106481	  0.057202	
10.8118	  0.276919	  0.099135	  0.054633	
10.8743	  0.292006	  0.093529	  0.052494	
10.9368	  0.296414	  0.087696	  0.051340	
10.9993	  0.281541	  0.081905	  0.051511	
11.0618	  0.254285	  0.077286	  0.052264	
11.1243	  0.229812	  0.074148	  0.051887	
11.1868	  0.214592	  0.071504	  0.049184	
11.2493	  0.204967	  0.068684	  0.044649	
11.3118	  0.197276	  0.066572	  0.039799	
11.3743	  0.192179	  0.066481	  0.035804	
11.4368	  0.191952	  0.068842	  0.033073	
11.4993	  0.195952	  0.073289	  0.031409	
11.5618	  0.200170	  0.078971	  0.029851	
11.6243	  0.203026	  0.084870	  0.027004	
11.6868	  0.206073	  0.090496	  0.022572	
